<svg xmlns="http://www.w3.org/2000/svg" width="24" height="24" viewBox="0 0 24 24">
    <g fill="none" fill-rule="evenodd">
        <circle cx="12" cy="12" r="8" stroke="#F8DF52"/>
        <path fill="#F8DF52" fill-rule="nonzero" d="M12.356 13.896c0-.594.143-1.049.428-1.365l.639-.633c.633-.664.949-1.338.949-2.021 0-.692-.206-1.236-.618-1.632-.412-.397-.988-.595-1.726-.595-.71 0-1.288.194-1.731.583-.444.389-.67.9-.677 1.532h1.084c0-.355.121-.638.363-.85.242-.21.563-.316.961-.316.41 0 .723.116.938.349.215.232.322.554.322.964 0 .425-.164.824-.492 1.195l-.768.791c-.3.328-.5.627-.597.897-.098.27-.15.636-.159 1.101h1.084zm-.492 2.467c.211 0 .371-.058.48-.173.11-.115.165-.26.165-.436s-.055-.324-.164-.443c-.11-.119-.27-.179-.48-.179-.212 0-.371.06-.478.18-.108.118-.162.266-.162.442 0 .175.054.32.162.436.107.115.266.173.477.173z"/>
    </g>
</svg>
