<svg width="120" height="119" viewBox="0 0 120 119" fill="none" xmlns="http://www.w3.org/2000/svg">
<path d="M74.999 0.904986C89.1572 4.56036 101.493 13.2602 109.689 25.3698C117.885 37.4795 121.377 52.1653 119.508 66.6679C117.639 81.1705 110.539 94.4915 99.5408 104.128C88.5428 113.764 74.4043 119.053 59.7819 119C45.1595 118.946 31.0599 113.555 20.1322 103.839C9.2045 94.1231 2.20107 80.7509 0.43782 66.2351C-1.32543 51.7193 2.27288 37.0593 10.5566 25.0095C18.8404 12.9598 31.2393 4.34984 45.4237 0.797486L46.4235 4.78959C33.212 8.09829 21.6635 16.1177 13.9479 27.3409C6.23237 38.5642 2.88087 52.2187 4.52318 65.7388C6.16549 79.259 12.6886 91.714 22.8667 100.764C33.0449 109.813 46.1774 114.835 59.7969 114.884C73.4163 114.934 86.585 110.008 96.8287 101.033C107.072 92.0571 113.686 79.6498 115.426 66.142C117.167 52.6341 113.915 38.9556 106.281 27.6765C98.6472 16.3975 87.1573 8.29437 73.9702 4.88972L74.999 0.904986Z" fill="#DF8B5B"/>
</svg>
