<svg width="240" height="183" viewBox="0 0 240 183" fill="none" xmlns="http://www.w3.org/2000/svg">
<path fill-rule="evenodd" clip-rule="evenodd" d="M106.5 0L31.5 43.3013L106.5 86.6025V46.3013H187C213.234 46.3013 234.5 67.5677 234.5 93.8013V124.301H239.5V93.8013C239.5 64.8063 215.995 41.3013 187 41.3013H106.5V0ZM208 139.301L133 182.603V141.301H52.5C23.5051 141.301 0 117.796 0 88.8013V58.3013H5V88.8013C5 115.035 26.2665 136.301 52.5 136.301H133V96L208 139.301Z" fill="#DF8B5B"/>
<path d="M17.2386 19.9091V49H13.7159V23.6023H13.5455L6.44318 28.3182V24.7386L13.7159 19.9091H17.2386Z" fill="#DF8B5B"/>
</svg>
